<?xml version="1.0" encoding="UTF-8" standalone="no"?>
<svg
   xmlns:dc="http://purl.org/dc/elements/1.1/"
   xmlns:cc="http://creativecommons.org/ns#"
   xmlns:rdf="http://www.w3.org/1999/02/22-rdf-syntax-ns#"
   xmlns:svg="http://www.w3.org/2000/svg"
   xmlns="http://www.w3.org/2000/svg"
   id="svg8"
   version="1.1"
   viewBox="0 0 50.8 50.8"
   height="192"
   width="192">
  <defs
     id="defs2">
    <filter
       height="1.048"
       y="-0.024"
       width="1.048"
       x="-0.024"
       id="filter854"
       style="color-interpolation-filters:sRGB">
      <feGaussianBlur
         id="feGaussianBlur856"
         stdDeviation="0.47625" />
    </filter>
  </defs>
  <metadata
     id="metadata5">
    <rdf:RDF>
      <cc:Work
         rdf:about="">
        <dc:format>image/svg+xml</dc:format>
        <dc:type
           rdf:resource="http://purl.org/dc/dcmitype/StillImage" />
        <dc:title></dc:title>
      </cc:Work>
    </rdf:RDF>
  </metadata>
  <g
     transform="translate(0,-246.2)"
     id="layer1">
    <rect
       transform="matrix(0.92769298,0,0,0.92769298,1.6062213,20.996241)"
       ry="3.7207029"
       rx="3.7207029"
       y="247.78749"
       x="1.5874979"
       height="47.625"
       width="47.625"
       id="rect2062-9"
       style="opacity:1;fill:#848484;fill-opacity:1;stroke:none;stroke-width:4.24228859;stroke-miterlimit:4;stroke-dasharray:none;stroke-opacity:1;filter:url(#filter854)" />
    <rect
       ry="3.4881592"
       rx="3.4881592"
       y="247.68828"
       x="3.0757794"
       height="44.648441"
       width="44.648441"
       id="rect2062"
       style="opacity:1;fill:#dfdfdf;fill-opacity:1;stroke:none;stroke-width:3.97714591;stroke-miterlimit:4;stroke-dasharray:none;stroke-opacity:1" />
    <path
       id="rect4129-8"
       d="m 4.9882233,246.2 c -1.884586,0 -3.4007233,1.51612 -3.4007233,3.40071 v 40.82356 c 0,1.8846 1.5161373,3.40073 3.4007233,3.40073 H 45.811784 c 1.884582,0 3.400716,-1.51613 3.400716,-3.40073 v -40.82356 c 0,-1.88459 -1.516134,-3.40071 -3.400716,-3.40071 z m 20.2331847,6.86841 3.222128,0.007 -0.02972,8.68415 4.070419,-4.2044 3.81,0.0145 -4.43505,4.29372 4.889006,7.43394 -3.899297,-0.0145 -3.19981,-5.2536 -1.250156,1.19804 -0.01462,4.04071 -3.214687,-0.0145 0.05207,-16.18509 z m 7.337247,0.0226 13.260564,0.0521 -0.0075,2.99143 -4.851826,-0.0222 -0.05213,13.20109 -3.556997,-0.0145 0.04462,-13.19366 -4.844278,-0.0224 0.0075,-2.99144 z m -13.811247,0.0222 c 0.770832,0.003 1.506885,0.1401 2.202657,0.40928 0.695673,0.26917 1.306686,0.71485 1.830561,1.33943 0.5239,0.62462 0.934988,1.45406 1.235298,2.48544 0.300237,1.03142 0.444476,2.30561 0.439018,3.81741 -0.0057,1.55669 -0.161081,2.84798 -0.468783,3.88445 -0.307801,1.03646 -0.721767,1.87225 -1.250157,2.50776 -0.528488,0.63549 -1.147861,1.08995 -1.845469,1.35432 -0.697706,0.26438 -1.431825,0.38973 -2.202656,0.38698 -0.770904,-0.003 -1.499319,-0.13246 -2.187822,-0.40186 -0.68843,-0.26938 -1.291878,-0.72991 -1.808238,-1.36922 -0.516359,-0.63926 -0.920129,-1.47653 -1.22039,-2.51517 -0.300262,-1.03867 -0.452116,-2.33521 -0.446484,-3.89187 0.0054,-1.51186 0.168522,-2.78078 0.47625,-3.81 0.307751,-1.02919 0.721816,-1.85714 1.242714,-2.47798 0.520948,-0.62084 1.125314,-1.06039 1.815679,-1.32458 0.690438,-0.26419 1.416918,-0.39716 2.187822,-0.39439 z m -9.0115669,0.27533 2.5151949,0.0146 -0.05207,15.55998 -3.1626219,-0.007 0.037228,-10.09799 -3.9142055,-0.015 0.00741,-2.37379 c 0.5482332,0.0168 1.0806901,-0.0245 1.5924611,-0.11906 0.5117447,-0.0945 0.9755681,-0.263 1.3915425,-0.50602 0.4159504,-0.24298 0.7659191,-0.56798 1.0418226,-0.96739 0.2757778,-0.39936 0.4523878,-0.89551 0.5431978,-1.48825 z m 9.0041009,2.32916 c -0.415304,-0.003 -0.77455,0.0914 -1.071563,0.28277 -0.297011,0.19144 -0.53516,0.44081 -0.721816,0.75158 -0.186605,0.31079 -0.334044,0.66438 -0.439043,1.05671 -0.104998,0.39227 -0.177229,0.79041 -0.223242,1.19061 -0.04599,0.40022 -0.073,0.79038 -0.08188,1.16829 -0.0089,0.37796 -0.01364,0.70053 -0.01464,0.96741 -0.0024,0.44465 0.0097,0.97725 0.03723,1.60731 0.02731,0.63009 0.1144,1.23699 0.267867,1.82314 0.153491,0.58622 0.404539,1.08687 0.744115,1.50318 0.339651,0.41631 0.828551,0.63021 1.465958,0.63253 0.637455,0.003 1.130969,-0.20388 1.488305,-0.61764 0.357337,-0.41376 0.616149,-0.91069 0.773882,-1.49571 0.157807,-0.58507 0.25085,-1.1933 0.282798,-1.82318 0.03189,-0.62983 0.0505,-1.17008 0.05209,-1.61478 0,-0.26688 -0.0024,-0.58939 -0.0074,-0.96735 -0.0062,-0.37801 -0.0315,-0.76779 -0.08183,-1.16834 -0.05038,-0.40052 -0.128365,-0.7976 -0.223267,-1.19062 -0.0949,-0.393 -0.232593,-0.74447 -0.424136,-1.05669 -0.191591,-0.31215 -0.440878,-0.56542 -0.736699,-0.75901 -0.29587,-0.19353 -0.656729,-0.28867 -1.08647,-0.29021 z m 11.139807,15.97669 c 0.634256,0.29235 0.573834,1.09707 0.416719,1.65943 -0.193894,1.33951 -1.687857,2.12796 -2.946816,1.86779 -2.264794,-0.77091 -4.452245,-1.86023 -6.846072,-2.1952 -1.680468,-0.16474 -3.454722,-0.28046 -5.05274,0.37209 -0.676646,0.25076 -1.285503,0.69456 -1.622226,1.34686 -0.381471,0.43021 -0.299244,1.31309 -1.012031,1.33948 -1.107232,-0.0549 -0.532433,-1.29075 -0.05953,-1.76361 1.028005,-1.35947 2.665313,-2.12946 4.330923,-2.33663 2.286472,-0.31756 4.628307,0.0865 6.793954,0.83344 1.256705,0.43409 2.43525,1.13015 3.750473,1.37666 0.664716,0.12845 1.574372,-0.20102 1.555275,-0.99715 0.02709,-0.55216 -0.04584,-1.42331 0.692072,-1.50316 z m 5.945663,1.41389 c 0.640584,-0.0276 1.260872,0.33635 1.733869,0.78132 0.933525,0.74963 3.833372,2.41616 4.777341,3.15516 1.206243,0.86993 0.574022,0.6573 1.689225,1.64456 0.651619,0.59658 1.426434,1.06274 1.979409,1.75617 0.55275,0.8264 -0.07744,1.82594 -0.751603,2.35149 -0.873103,0.68646 -1.973981,1.27848 -3.117928,1.15341 -0.787003,-0.33896 -0.976238,-1.58984 -2.068688,-1.53292 -1.313681,0.003 -2.684184,-0.10248 -3.869531,-0.72927 -0.930254,-0.46128 -1.967232,-0.41529 -2.961704,-0.46881 -0.732853,-0.21928 -2.331319,-0.12398 -2.187769,-1.22038 0.364257,-0.79579 1.365497,-1.22134 2.202657,-0.98227 0.354506,0.12638 4.182488,0.36569 3.326325,0.13394 -0.332503,-0.23357 -1.445906,-0.44405 -2.522634,-0.69205 -1.076747,-0.248 -2.116585,-0.53632 -2.314323,-0.92272 -0.171009,-0.39787 -0.234778,-0.79509 -0.602709,-0.29023 -0.715387,0.59823 -1.303481,1.33308 -1.942209,2.00174 -0.362888,0.27557 -0.928829,0.43835 -1.302263,0.0893 -0.230738,-0.95138 0.593222,-1.73636 1.086441,-2.44823 0.764531,-0.77696 1.346944,-1.81271 2.366372,-2.28451 1.255631,-0.51167 2.611087,-0.73778 3.839784,-1.32454 0.212035,-0.10859 0.426394,-0.16193 0.639938,-0.17116 z m -27.1450356,0.56613 c 1.8324216,0 3.3114506,1.47898 3.3114256,3.31143 2.5e-5,1.83245 -1.479004,3.32631 -3.3114256,3.3263 -1.832422,0 -3.3263087,-1.49385 -3.3263087,-3.3263 4.88e-5,-1.83245 1.4938867,-3.31143 3.3263087,-3.31143 z m 9.4717196,2.11278 c 0.825029,-0.0172 1.466453,0.0422 1.704057,0.2604 0.345381,0.31722 0.681583,0.61642 1.012031,0.90788 0.104255,-0.0254 0.220341,-0.0371 0.342305,-0.0372 h 2.284512 c 0.462385,0 0.833388,0.20116 0.833438,0.45389 0,0.25275 -0.371029,0.45387 -0.833438,0.45394 h -1.622202 c 0.423789,0.35753 0.837282,0.69646 1.235224,1.01203 0.03864,-0.003 0.07897,-0.007 0.119062,-0.007 h 2.291979 c 0.462384,0 0.833388,0.20867 0.833438,0.4614 0,0.25269 -0.371029,0.45387 -0.833438,0.45389 h -1.227833 c 0.490687,0.36315 0.958081,0.69626 1.406427,0.99718 0.09622,-0.0208 0.202307,-0.0371 0.312563,-0.0372 h 2.284515 c 0.462357,0 0.84075,0.20861 0.840872,0.46134 -1.8e-5,0.25278 -0.378515,0.45387 -0.840872,0.45394 h -1.205512 c 0.467325,0.27829 0.909291,0.52298 1.324547,0.73669 0.09808,-0.022 0.207065,-0.0371 0.319978,-0.0372 h 2.284538 c 0.462309,0 0.840778,0.20116 0.840834,0.45389 0,0.25273 -0.378525,0.4613 -0.840834,0.46137 h -0.632522 c 2.076975,0.78123 3.227765,0.72962 3.750469,1.08644 0.812906,0.5551 -0.322707,2.57699 -2.00176,2.55984 -2.227313,-0.0229 1.673672,-0.007 -3.705816,0.015 -5.379496,0.0229 -20.0396869,0.0521 -20.0396869,0.0521 0,0 -1.5817211,0.18951 -2.5450108,-1.45851 -0.7472166,-1.27865 -0.6392916,-3.69016 0,-4.47229 0.37842,-0.46285 1.1049741,0.30398 3.0429398,0.20718 1.3442409,-0.0671 2.5152449,-0.40578 3.3871789,-2.20027 0.964729,-1.98549 0.736254,-2.83054 1.984549,-3.07111 1.304181,0 2.518197,-0.13868 3.893468,-0.16709 z"
       clip-path="none"
       style="fill:#00695c;fill-opacity:1;stroke:none;stroke-width:0.22678573" />
  </g>
</svg>
